<svg baseProfile="full" height="392" version="1.1" width="392" xmlns="http://www.w3.org/2000/svg" xmlns:ev="http://www.w3.org/2001/xml-events" xmlns:xlink="http://www.w3.org/1999/xlink"><defs /><g transform=" rotate(0, 196, 196)"><rect fill="#F8F8F8" height="392" width="392" x="0" y="0" /><ellipse cx="70" cy="70" fill="#B2D135" opacity="1" rx="10.0" ry="10.0" stroke-width="0" transform=" rotate(0, 70, 70)" /><ellipse cx="106" cy="70" fill="#B2D135" opacity="1" rx="10.0" ry="10.0" stroke-width="0" transform=" rotate(0, 106, 70)" /><ellipse cx="142" cy="70" fill="#B2D135" opacity="1" rx="10.0" ry="10.0" stroke-width="0" transform=" rotate(0, 142, 70)" /><ellipse cx="178" cy="70" fill="#B2D135" opacity="1" rx="10.0" ry="10.0" stroke-width="0" transform=" rotate(0, 178, 70)" /><ellipse cx="214" cy="70" fill="#B2D135" opacity="1" rx="10.0" ry="10.0" stroke-width="0" transform=" rotate(0, 214, 70)" /><ellipse cx="250" cy="70" fill="#B2D135" opacity="1" rx="10.0" ry="10.0" stroke-width="0" transform=" rotate(0, 250, 70)" /><ellipse cx="286" cy="70" fill="#B2D135" opacity="1" rx="10.0" ry="10.0" stroke-width="0" transform=" rotate(0, 286, 70)" /><ellipse cx="322" cy="70" fill="#B2D135" opacity="1" rx="10.0" ry="10.0" stroke-width="0" transform=" rotate(0, 322, 70)" /><ellipse cx="70" cy="106" fill="#B2D135" opacity="1" rx="10.0" ry="10.0" stroke-width="0" transform=" rotate(0, 70, 106)" /><ellipse cx="106" cy="106" fill="#ED4959" opacity="1" rx="10.0" ry="10.0" stroke-width="0" transform=" rotate(0, 106, 106)" /><ellipse cx="142" cy="106" fill="#ED4959" opacity="1" rx="10.0" ry="10.0" stroke-width="0" transform=" rotate(0, 142, 106)" /><ellipse cx="178" cy="106" fill="#ED4959" opacity="1" rx="10.0" ry="10.0" stroke-width="0" transform=" rotate(0, 178, 106)" /><ellipse cx="214" cy="106" fill="#ED4959" opacity="1" rx="10.0" ry="10.0" stroke-width="0" transform=" rotate(0, 214, 106)" /><ellipse cx="250" cy="106" fill="#ED4959" opacity="1" rx="10.0" ry="10.0" stroke-width="0" transform=" rotate(0, 250, 106)" /><ellipse cx="286" cy="106" fill="#ED4959" opacity="1" rx="10.0" ry="10.0" stroke-width="0" transform=" rotate(0, 286, 106)" /><ellipse cx="322" cy="106" fill="#B2D135" opacity="1" rx="10.0" ry="10.0" stroke-width="0" transform=" rotate(0, 322, 106)" /><ellipse cx="70" cy="142" fill="#B2D135" opacity="1" rx="10.0" ry="10.0" stroke-width="0" transform=" rotate(0, 70, 142)" /><ellipse cx="106" cy="142" fill="#ED4959" opacity="1" rx="10.0" ry="10.0" stroke-width="0" transform=" rotate(0, 106, 142)" /><ellipse cx="142" cy="142" fill="#F39130" opacity="1" rx="10.0" ry="10.0" stroke-width="0" transform=" rotate(0, 142, 142)" /><ellipse cx="178" cy="142" fill="#F39130" opacity="1" rx="10.0" ry="10.0" stroke-width="0" transform=" rotate(0, 178, 142)" /><ellipse cx="214" cy="142" fill="#F39130" opacity="1" rx="10.0" ry="10.0" stroke-width="0" transform=" rotate(0, 214, 142)" /><ellipse cx="250" cy="142" fill="#F39130" opacity="1" rx="10.0" ry="10.0" stroke-width="0" transform=" rotate(0, 250, 142)" /><ellipse cx="286" cy="142" fill="#ED4959" opacity="1" rx="10.0" ry="10.0" stroke-width="0" transform=" rotate(0, 286, 142)" /><ellipse cx="322" cy="142" fill="#B2D135" opacity="1" rx="10.0" ry="10.0" stroke-width="0" transform=" rotate(0, 322, 142)" /><ellipse cx="70" cy="178" fill="#B2D135" opacity="1" rx="10.0" ry="10.0" stroke-width="0" transform=" rotate(0, 70, 178)" /><ellipse cx="106" cy="178" fill="#ED4959" opacity="1" rx="10.0" ry="10.0" stroke-width="0" transform=" rotate(0, 106, 178)" /><ellipse cx="142" cy="178" fill="#F39130" opacity="1" rx="10.0" ry="10.0" stroke-width="0" transform=" rotate(0, 142, 178)" /><ellipse cx="178" cy="178" fill="#FCE533" opacity="1" rx="10.0" ry="10.0" stroke-width="0" transform=" rotate(0, 178, 178)" /><ellipse cx="214" cy="178" fill="#FCE533" opacity="1" rx="10.0" ry="10.0" stroke-width="0" transform=" rotate(0, 214, 178)" /><ellipse cx="250" cy="178" fill="#F39130" opacity="1" rx="10.0" ry="10.0" stroke-width="0" transform=" rotate(0, 250, 178)" /><ellipse cx="286" cy="178" fill="#ED4959" opacity="1" rx="10.0" ry="10.0" stroke-width="0" transform=" rotate(0, 286, 178)" /><ellipse cx="322" cy="178" fill="#B2D135" opacity="1" rx="10.0" ry="10.0" stroke-width="0" transform=" rotate(0, 322, 178)" /><ellipse cx="70" cy="214" fill="#B2D135" opacity="1" rx="10.0" ry="10.0" stroke-width="0" transform=" rotate(0, 70, 214)" /><ellipse cx="106" cy="214" fill="#ED4959" opacity="1" rx="10.0" ry="10.0" stroke-width="0" transform=" rotate(0, 106, 214)" /><ellipse cx="142" cy="214" fill="#F39130" opacity="1" rx="10.0" ry="10.0" stroke-width="0" transform=" rotate(0, 142, 214)" /><ellipse cx="178" cy="214" fill="#FCE533" opacity="1" rx="10.0" ry="10.0" stroke-width="0" transform=" rotate(0, 178, 214)" /><ellipse cx="214" cy="214" fill="#FCE533" opacity="1" rx="10.0" ry="10.0" stroke-width="0" transform=" rotate(0, 214, 214)" /><ellipse cx="250" cy="214" fill="#F39130" opacity="1" rx="10.0" ry="10.0" stroke-width="0" transform=" rotate(0, 250, 214)" /><ellipse cx="286" cy="214" fill="#ED4959" opacity="1" rx="10.0" ry="10.0" stroke-width="0" transform=" rotate(0, 286, 214)" /><ellipse cx="322" cy="214" fill="#B2D135" opacity="1" rx="10.0" ry="10.0" stroke-width="0" transform=" rotate(0, 322, 214)" /><ellipse cx="70" cy="250" fill="#B2D135" opacity="1" rx="10.0" ry="10.0" stroke-width="0" transform=" rotate(0, 70, 250)" /><ellipse cx="106" cy="250" fill="#ED4959" opacity="1" rx="10.0" ry="10.0" stroke-width="0" transform=" rotate(0, 106, 250)" /><ellipse cx="142" cy="250" fill="#F39130" opacity="1" rx="10.0" ry="10.0" stroke-width="0" transform=" rotate(0, 142, 250)" /><ellipse cx="178" cy="250" fill="#F39130" opacity="1" rx="10.0" ry="10.0" stroke-width="0" transform=" rotate(0, 178, 250)" /><ellipse cx="214" cy="250" fill="#F39130" opacity="1" rx="10.0" ry="10.0" stroke-width="0" transform=" rotate(0, 214, 250)" /><ellipse cx="250" cy="250" fill="#F39130" opacity="1" rx="10.0" ry="10.0" stroke-width="0" transform=" rotate(0, 250, 250)" /><ellipse cx="286" cy="250" fill="#ED4959" opacity="1" rx="10.0" ry="10.0" stroke-width="0" transform=" rotate(0, 286, 250)" /><ellipse cx="322" cy="250" fill="#B2D135" opacity="1" rx="10.0" ry="10.0" stroke-width="0" transform=" rotate(0, 322, 250)" /><ellipse cx="70" cy="286" fill="#B2D135" opacity="1" rx="10.0" ry="10.0" stroke-width="0" transform=" rotate(0, 70, 286)" /><ellipse cx="106" cy="286" fill="#ED4959" opacity="1" rx="10.0" ry="10.0" stroke-width="0" transform=" rotate(0, 106, 286)" /><ellipse cx="142" cy="286" fill="#ED4959" opacity="1" rx="10.0" ry="10.0" stroke-width="0" transform=" rotate(0, 142, 286)" /><ellipse cx="178" cy="286" fill="#ED4959" opacity="1" rx="10.0" ry="10.0" stroke-width="0" transform=" rotate(0, 178, 286)" /><ellipse cx="214" cy="286" fill="#ED4959" opacity="1" rx="10.0" ry="10.0" stroke-width="0" transform=" rotate(0, 214, 286)" /><ellipse cx="250" cy="286" fill="#ED4959" opacity="1" rx="10.0" ry="10.0" stroke-width="0" transform=" rotate(0, 250, 286)" /><ellipse cx="286" cy="286" fill="#ED4959" opacity="1" rx="10.0" ry="10.0" stroke-width="0" transform=" rotate(0, 286, 286)" /><ellipse cx="322" cy="286" fill="#B2D135" opacity="1" rx="10.0" ry="10.0" stroke-width="0" transform=" rotate(0, 322, 286)" /><ellipse cx="70" cy="322" fill="#B2D135" opacity="1" rx="10.0" ry="10.0" stroke-width="0" transform=" rotate(0, 70, 322)" /><ellipse cx="106" cy="322" fill="#B2D135" opacity="1" rx="10.0" ry="10.0" stroke-width="0" transform=" rotate(0, 106, 322)" /><ellipse cx="142" cy="322" fill="#B2D135" opacity="1" rx="10.0" ry="10.0" stroke-width="0" transform=" rotate(0, 142, 322)" /><ellipse cx="178" cy="322" fill="#B2D135" opacity="1" rx="10.0" ry="10.0" stroke-width="0" transform=" rotate(0, 178, 322)" /><ellipse cx="214" cy="322" fill="#B2D135" opacity="1" rx="10.0" ry="10.0" stroke-width="0" transform=" rotate(0, 214, 322)" /><ellipse cx="250" cy="322" fill="#B2D135" opacity="1" rx="10.0" ry="10.0" stroke-width="0" transform=" rotate(0, 250, 322)" /><ellipse cx="286" cy="322" fill="#B2D135" opacity="1" rx="10.0" ry="10.0" stroke-width="0" transform=" rotate(0, 286, 322)" /><ellipse cx="322" cy="322" fill="#B2D135" opacity="1" rx="10.0" ry="10.0" stroke-width="0" transform=" rotate(0, 322, 322)" /></g></svg>
