<svg baseProfile="full" height="324" version="1.1" width="324" xmlns="http://www.w3.org/2000/svg" xmlns:ev="http://www.w3.org/2001/xml-events" xmlns:xlink="http://www.w3.org/1999/xlink"><defs /><g transform=" rotate(0, 162, 162)"><rect fill="#F8F8F8" height="324" width="324" x="0" y="0" /><ellipse cx="72" cy="72" fill="pink" opacity="1" rx="10.0" ry="10.0" stroke-width="0" transform=" rotate(0, 72, 72)" /><ellipse cx="108" cy="72" fill="pink" opacity="1" rx="10.0" ry="10.0" stroke-width="0" transform=" rotate(0, 108, 72)" /><ellipse cx="144" cy="72" fill="yellow" opacity="1" rx="12.5" ry="12.5" stroke-width="0" transform=" rotate(0, 144, 72)" /><ellipse cx="180" cy="72" fill="yellow" opacity="1" rx="12.5" ry="12.5" stroke-width="0" transform=" rotate(0, 180, 72)" /><ellipse cx="216" cy="72" fill="deepskyblue" opacity="1" rx="12.5" ry="12.5" stroke-width="0" transform=" rotate(0, 216, 72)" /><ellipse cx="252" cy="72" fill="deepskyblue" opacity="1" rx="12.5" ry="12.5" stroke-width="0" transform=" rotate(0, 252, 72)" /><ellipse cx="72" cy="108" fill="limegreen" opacity="1" rx="10.0" ry="10.0" stroke-width="0" transform=" rotate(0, 72, 108)" /><ellipse cx="108" cy="108" fill="pink" opacity="1" rx="10.0" ry="10.0" stroke-width="0" transform=" rotate(0, 108, 108)" /><ellipse cx="144" cy="108" fill="pink" opacity="1" rx="10.0" ry="10.0" stroke-width="0" transform=" rotate(0, 144, 108)" /><ellipse cx="180" cy="108" fill="yellow" opacity="1" rx="12.5" ry="12.5" stroke-width="0" transform=" rotate(0, 180, 108)" /><ellipse cx="216" cy="108" fill="yellow" opacity="1" rx="12.5" ry="12.5" stroke-width="0" transform=" rotate(0, 216, 108)" /><ellipse cx="252" cy="108" fill="deepskyblue" opacity="1" rx="12.5" ry="12.5" stroke-width="0" transform=" rotate(0, 252, 108)" /><ellipse cx="72" cy="144" fill="limegreen" opacity="1" rx="10.0" ry="10.0" stroke-width="0" transform=" rotate(0, 72, 144)" /><ellipse cx="108" cy="144" fill="limegreen" opacity="1" rx="10.0" ry="10.0" stroke-width="0" transform=" rotate(0, 108, 144)" /><ellipse cx="144" cy="144" fill="pink" opacity="1" rx="10.0" ry="10.0" stroke-width="0" transform=" rotate(0, 144, 144)" /><ellipse cx="180" cy="144" fill="pink" opacity="1" rx="10.0" ry="10.0" stroke-width="0" transform=" rotate(0, 180, 144)" /><ellipse cx="216" cy="144" fill="yellow" opacity="1" rx="12.5" ry="12.5" stroke-width="0" transform=" rotate(0, 216, 144)" /><ellipse cx="252" cy="144" fill="yellow" opacity="1" rx="12.5" ry="12.5" stroke-width="0" transform=" rotate(0, 252, 144)" /><ellipse cx="72" cy="180" fill="red" opacity="1" rx="7.5" ry="7.5" stroke-width="0" transform=" rotate(0, 72, 180)" /><ellipse cx="108" cy="180" fill="limegreen" opacity="1" rx="10.0" ry="10.0" stroke-width="0" transform=" rotate(0, 108, 180)" /><ellipse cx="144" cy="180" fill="limegreen" opacity="1" rx="10.0" ry="10.0" stroke-width="0" transform=" rotate(0, 144, 180)" /><ellipse cx="180" cy="180" fill="pink" opacity="1" rx="10.0" ry="10.0" stroke-width="0" transform=" rotate(0, 180, 180)" /><ellipse cx="216" cy="180" fill="pink" opacity="1" rx="10.0" ry="10.0" stroke-width="0" transform=" rotate(0, 216, 180)" /><ellipse cx="252" cy="180" fill="yellow" opacity="1" rx="12.5" ry="12.5" stroke-width="0" transform=" rotate(0, 252, 180)" /><ellipse cx="72" cy="216" fill="red" opacity="1" rx="7.5" ry="7.5" stroke-width="0" transform=" rotate(0, 72, 216)" /><ellipse cx="108" cy="216" fill="red" opacity="1" rx="7.5" ry="7.5" stroke-width="0" transform=" rotate(0, 108, 216)" /><ellipse cx="144" cy="216" fill="limegreen" opacity="1" rx="10.0" ry="10.0" stroke-width="0" transform=" rotate(0, 144, 216)" /><ellipse cx="180" cy="216" fill="limegreen" opacity="1" rx="10.0" ry="10.0" stroke-width="0" transform=" rotate(0, 180, 216)" /><ellipse cx="216" cy="216" fill="pink" opacity="1" rx="10.0" ry="10.0" stroke-width="0" transform=" rotate(0, 216, 216)" /><ellipse cx="252" cy="216" fill="pink" opacity="1" rx="10.0" ry="10.0" stroke-width="0" transform=" rotate(0, 252, 216)" /><ellipse cx="72" cy="252" fill="mediumblue" opacity="1" rx="7.5" ry="7.5" stroke-width="0" transform=" rotate(0, 72, 252)" /><ellipse cx="108" cy="252" fill="red" opacity="1" rx="7.5" ry="7.5" stroke-width="0" transform=" rotate(0, 108, 252)" /><ellipse cx="144" cy="252" fill="red" opacity="1" rx="7.5" ry="7.5" stroke-width="0" transform=" rotate(0, 144, 252)" /><ellipse cx="180" cy="252" fill="limegreen" opacity="1" rx="10.0" ry="10.0" stroke-width="0" transform=" rotate(0, 180, 252)" /><ellipse cx="216" cy="252" fill="limegreen" opacity="1" rx="10.0" ry="10.0" stroke-width="0" transform=" rotate(0, 216, 252)" /><ellipse cx="252" cy="252" fill="pink" opacity="1" rx="10.0" ry="10.0" stroke-width="0" transform=" rotate(0, 252, 252)" /></g></svg>
