<svg baseProfile="full" height="392" version="1.1" width="392" xmlns="http://www.w3.org/2000/svg" xmlns:ev="http://www.w3.org/2001/xml-events" xmlns:xlink="http://www.w3.org/1999/xlink"><defs /><g transform=" rotate(0, 196, 196)"><rect fill="#F8F8F8" height="392" width="392" x="0" y="0" /><rect fill="#54C4D0" height="20" opacity="1" stroke-width="0" transform=" rotate(0, 70, 70)" width="20" x="60.0" y="60.0" /><rect fill="#54C4D0" height="20" opacity="1" stroke-width="0" transform=" rotate(0, 106, 70)" width="20" x="96.0" y="60.0" /><ellipse cx="142" cy="70" fill="#54C4D0" opacity="1" rx="10.0" ry="10.0" stroke-width="0" transform=" rotate(0, 142, 70)" /><rect fill="#54C4D0" height="20" opacity="1" stroke-width="0" transform=" rotate(0, 178, 70)" width="20" x="168.0" y="60.0" /><rect fill="#54C4D0" height="20" opacity="1" stroke-width="0" transform=" rotate(0, 214, 70)" width="20" x="204.0" y="60.0" /><ellipse cx="250" cy="70" fill="#54C4D0" opacity="1" rx="10.0" ry="10.0" stroke-width="0" transform=" rotate(0, 250, 70)" /><rect fill="#54C4D0" height="20" opacity="1" stroke-width="0" transform=" rotate(0, 286, 70)" width="20" x="276.0" y="60.0" /><rect fill="#54C4D0" height="20" opacity="1" stroke-width="0" transform=" rotate(0, 322, 70)" width="20" x="312.0" y="60.0" /><rect fill="#ED4959" height="20" opacity="1" stroke-width="0" transform=" rotate(0, 70, 106)" width="20" x="60.0" y="96.0" /><rect fill="#ED4959" height="20" opacity="1" stroke-width="0" transform=" rotate(0, 106, 106)" width="20" x="96.0" y="96.0" /><ellipse cx="142" cy="106" fill="#ED4959" opacity="1" rx="10.0" ry="10.0" stroke-width="0" transform=" rotate(0, 142, 106)" /><rect fill="#ED4959" height="20" opacity="1" stroke-width="0" transform=" rotate(0, 178, 106)" width="20" x="168.0" y="96.0" /><rect fill="#ED4959" height="20" opacity="1" stroke-width="0" transform=" rotate(0, 214, 106)" width="20" x="204.0" y="96.0" /><ellipse cx="250" cy="106" fill="#ED4959" opacity="1" rx="10.0" ry="10.0" stroke-width="0" transform=" rotate(0, 250, 106)" /><rect fill="#ED4959" height="20" opacity="1" stroke-width="0" transform=" rotate(0, 286, 106)" width="20" x="276.0" y="96.0" /><rect fill="#ED4959" height="20" opacity="1" stroke-width="0" transform=" rotate(0, 322, 106)" width="20" x="312.0" y="96.0" /><rect fill="#62BD80" height="20" opacity="1" stroke-width="0" transform=" rotate(0, 70, 142)" width="20" x="60.0" y="132.0" /><rect fill="#62BD80" height="20" opacity="1" stroke-width="0" transform=" rotate(0, 106, 142)" width="20" x="96.0" y="132.0" /><ellipse cx="142" cy="142" fill="#62BD80" opacity="1" rx="10.0" ry="10.0" stroke-width="0" transform=" rotate(0, 142, 142)" /><rect fill="#62BD80" height="20" opacity="1" stroke-width="0" transform=" rotate(0, 178, 142)" width="20" x="168.0" y="132.0" /><rect fill="#62BD80" height="20" opacity="1" stroke-width="0" transform=" rotate(0, 214, 142)" width="20" x="204.0" y="132.0" /><ellipse cx="250" cy="142" fill="#62BD80" opacity="1" rx="10.0" ry="10.0" stroke-width="0" transform=" rotate(0, 250, 142)" /><rect fill="#62BD80" height="20" opacity="1" stroke-width="0" transform=" rotate(0, 286, 142)" width="20" x="276.0" y="132.0" /><rect fill="#62BD80" height="20" opacity="1" stroke-width="0" transform=" rotate(0, 322, 142)" width="20" x="312.0" y="132.0" /><rect fill="#F39130" height="20" opacity="1" stroke-width="0" transform=" rotate(0, 70, 178)" width="20" x="60.0" y="168.0" /><rect fill="#F39130" height="20" opacity="1" stroke-width="0" transform=" rotate(0, 106, 178)" width="20" x="96.0" y="168.0" /><ellipse cx="142" cy="178" fill="#F39130" opacity="1" rx="10.0" ry="10.0" stroke-width="0" transform=" rotate(0, 142, 178)" /><rect fill="#F39130" height="20" opacity="1" stroke-width="0" transform=" rotate(0, 178, 178)" width="20" x="168.0" y="168.0" /><rect fill="#F39130" height="20" opacity="1" stroke-width="0" transform=" rotate(0, 214, 178)" width="20" x="204.0" y="168.0" /><ellipse cx="250" cy="178" fill="#F39130" opacity="1" rx="10.0" ry="10.0" stroke-width="0" transform=" rotate(0, 250, 178)" /><rect fill="#F39130" height="20" opacity="1" stroke-width="0" transform=" rotate(0, 286, 178)" width="20" x="276.0" y="168.0" /><rect fill="#F39130" height="20" opacity="1" stroke-width="0" transform=" rotate(0, 322, 178)" width="20" x="312.0" y="168.0" /><rect fill="#FCE533" height="20" opacity="1" stroke-width="0" transform=" rotate(0, 70, 214)" width="20" x="60.0" y="204.0" /><rect fill="#FCE533" height="20" opacity="1" stroke-width="0" transform=" rotate(0, 106, 214)" width="20" x="96.0" y="204.0" /><ellipse cx="142" cy="214" fill="#FCE533" opacity="1" rx="10.0" ry="10.0" stroke-width="0" transform=" rotate(0, 142, 214)" /><rect fill="#FCE533" height="20" opacity="1" stroke-width="0" transform=" rotate(0, 178, 214)" width="20" x="168.0" y="204.0" /><rect fill="#FCE533" height="20" opacity="1" stroke-width="0" transform=" rotate(0, 214, 214)" width="20" x="204.0" y="204.0" /><ellipse cx="250" cy="214" fill="#FCE533" opacity="1" rx="10.0" ry="10.0" stroke-width="0" transform=" rotate(0, 250, 214)" /><rect fill="#FCE533" height="20" opacity="1" stroke-width="0" transform=" rotate(0, 286, 214)" width="20" x="276.0" y="204.0" /><rect fill="#FCE533" height="20" opacity="1" stroke-width="0" transform=" rotate(0, 322, 214)" width="20" x="312.0" y="204.0" /><rect fill="#54C4D0" height="20" opacity="1" stroke-width="0" transform=" rotate(0, 70, 250)" width="20" x="60.0" y="240.0" /><rect fill="#54C4D0" height="20" opacity="1" stroke-width="0" transform=" rotate(0, 106, 250)" width="20" x="96.0" y="240.0" /><ellipse cx="142" cy="250" fill="#54C4D0" opacity="1" rx="10.0" ry="10.0" stroke-width="0" transform=" rotate(0, 142, 250)" /><rect fill="#54C4D0" height="20" opacity="1" stroke-width="0" transform=" rotate(0, 178, 250)" width="20" x="168.0" y="240.0" /><rect fill="#54C4D0" height="20" opacity="1" stroke-width="0" transform=" rotate(0, 214, 250)" width="20" x="204.0" y="240.0" /><ellipse cx="250" cy="250" fill="#54C4D0" opacity="1" rx="10.0" ry="10.0" stroke-width="0" transform=" rotate(0, 250, 250)" /><rect fill="#54C4D0" height="20" opacity="1" stroke-width="0" transform=" rotate(0, 286, 250)" width="20" x="276.0" y="240.0" /><rect fill="#54C4D0" height="20" opacity="1" stroke-width="0" transform=" rotate(0, 322, 250)" width="20" x="312.0" y="240.0" /><rect fill="#ED4959" height="20" opacity="1" stroke-width="0" transform=" rotate(0, 70, 286)" width="20" x="60.0" y="276.0" /><rect fill="#ED4959" height="20" opacity="1" stroke-width="0" transform=" rotate(0, 106, 286)" width="20" x="96.0" y="276.0" /><ellipse cx="142" cy="286" fill="#ED4959" opacity="1" rx="10.0" ry="10.0" stroke-width="0" transform=" rotate(0, 142, 286)" /><rect fill="#ED4959" height="20" opacity="1" stroke-width="0" transform=" rotate(0, 178, 286)" width="20" x="168.0" y="276.0" /><rect fill="#ED4959" height="20" opacity="1" stroke-width="0" transform=" rotate(0, 214, 286)" width="20" x="204.0" y="276.0" /><ellipse cx="250" cy="286" fill="#ED4959" opacity="1" rx="10.0" ry="10.0" stroke-width="0" transform=" rotate(0, 250, 286)" /><rect fill="#ED4959" height="20" opacity="1" stroke-width="0" transform=" rotate(0, 286, 286)" width="20" x="276.0" y="276.0" /><rect fill="#ED4959" height="20" opacity="1" stroke-width="0" transform=" rotate(0, 322, 286)" width="20" x="312.0" y="276.0" /><rect fill="#62BD80" height="20" opacity="1" stroke-width="0" transform=" rotate(0, 70, 322)" width="20" x="60.0" y="312.0" /><rect fill="#62BD80" height="20" opacity="1" stroke-width="0" transform=" rotate(0, 106, 322)" width="20" x="96.0" y="312.0" /><ellipse cx="142" cy="322" fill="#62BD80" opacity="1" rx="10.0" ry="10.0" stroke-width="0" transform=" rotate(0, 142, 322)" /><rect fill="#62BD80" height="20" opacity="1" stroke-width="0" transform=" rotate(0, 178, 322)" width="20" x="168.0" y="312.0" /><rect fill="#62BD80" height="20" opacity="1" stroke-width="0" transform=" rotate(0, 214, 322)" width="20" x="204.0" y="312.0" /><ellipse cx="250" cy="322" fill="#62BD80" opacity="1" rx="10.0" ry="10.0" stroke-width="0" transform=" rotate(0, 250, 322)" /><rect fill="#62BD80" height="20" opacity="1" stroke-width="0" transform=" rotate(0, 286, 322)" width="20" x="276.0" y="312.0" /><rect fill="#62BD80" height="20" opacity="1" stroke-width="0" transform=" rotate(0, 322, 322)" width="20" x="312.0" y="312.0" /></g></svg>
